<svg id="Layer_1" data-name="Layer 1" xmlns="http://www.w3.org/2000/svg" viewBox="0 0 608.53 461.18"><title>LEE_LOGO_BLACK_padding</title><path d="M375.35,308.47c2,6,3.36,15.35,3.38,24s-1.32,10.66-2.65,16.66c-.63,6,0,8.68-8,16.68-13.29,11.35-26.59,17.4-45.94,17.44-6.66,0-12.64,6-21.28,6.69-15.34,2.73-19.35-6.6-30-11.91-10.66-4.66-20.67-4.63-30-13.94-9.36-10-6.07-19.3-12.1-33.93-7.34-14-14.65-8-14.74-46.61,0-9.34-8-13.35-12.69-6-6,7.34-4,13.37-7.29,20.71-4,9.33-8.62,15.33-9.92,25.32-3.3,12.68-1.95,30-1.92,42.64,0,10-13.27,24-20.59,23.38-60-9.88-46.63,4.75-76.65-2.51-15.33-3.27-33.3,7.4-48,7.43-8.65,0-21.34-8.58-24-17.92-4.72-19.32,15.26-32.7,10.55-52-1.35-8-4.7-16.65-3.37-22.68,4.61-18-4.76-33.31-.12-50,4.62-18,11.93-32.66,7.9-48-2.05-11.33-.73-23.31-2.09-34-1.37-15.32-6.05-30-7.41-43.3C17.07,116-2.93,108.06.37,88.73,3,74.08,11,68,37.62,60.67c18-4.72,36-6.07,42,1.23,7.33,8.66,16.69,20.63,18.06,30,2,16.64-20.63,19.36-21.93,30-.64,19.32,4.07,34,5.44,52.64.71,17.32,8.06,32.63,3.44,50.63C82,233.85,80,239.83,77.33,246.47c-3.28,14.69.08,32.68,1.45,47.34,0,9.31-3.31,18-2.6,27.34,1.35,15.31,14.68,14.62,25.34,14.59,8.65,0,16,6.62,24,3.26,12-4.67,6-25.32,10.55-38.64,2.68-9.34,8.64-18,12-27.35,6-15.34-.06-22.66,3.93-32.68,7.95-20,33.28-18.07,49.94-18.77,8.65-1.35,4-12,5.28-20.66.66-9.33-1.38-20.65,5.92-25.34,24-19.36,17.94-36,31.91-45.37,13.3-8.7,18-2.72,25.3-10.07,10.65-10.67,25.29-16.7,37.26-16.73,3.34,0,9.36,2.64,15.35,2.63,7.33,1.32,14.66-1.37,20.68,4.61s12,14.65,20,20.62c12,12,23.4,24.62,23.42,37.94,0,16.65,2,22,8.08,40.64,1.34,5.31,16.68,5.95,22-.06,9.3-10.69,5.92-33.33,13.9-40.67,4-3.35,10-6,13.3-12,3.34-4.69,4.63-13.37,9.29-19.37,10-12,25.28-22.69,32.62-21.42,15.3,3.31,19.32,0,26.62-1.35,12-3.37,18-8,34.67,1.22,12,7.31,14,15.32,25.36,24,18.71,14.61,30.75,33.28,27.45,55.24-2.63,15.36,1.39,28.67,1.43,45.34,0,6,2,14.64-4,19.31s-24.65,7.38-46.62,6.12c-10.68,0-4.67-7.31-30-7.26-15.3,0-16.65,4.68-42,2.73-6,0-13.34,0-13.32,9.37,0,10.67,6,13.3,10,22.63C484,320.25,488,314.26,496,321.53a75.61,75.61,0,0,0,17.34,10.64c9.35,4.65,32-.07,34.65-4.71,9.29-18,11.95-16.7,23.95-24.06,9.29-6,15.31-7.37,19.32-1.39,4.67,7.32,9.35,13.31,10.68,20.63,1.39,18.67-21.87,51.38-44.52,54.75-7.32,1.34-13.31,11.36-18,11.36-9.32.68-18,.05-25.31,2.06-8,4-18-2-26-7.27-22-10.62-30-24.58-40.73-36.58-7.35-8.64-12-18-16-27.94A134.81,134.81,0,0,1,420.6,290.4c-1.33-8.66,0-14.65-2.7-25.33-2-14-12-1.32-28.68-1.27-34.64.08-37.33-10.58-57.29.12-7.32,4-20.64,6-28.64,5.4-8.68-1.33-20.68-5.93-29.33-7.27-16.67-2.62-10.65,16.69-7.92,33.35,1.32,10,9.34,16.63,10.68,22.62,2.72,11.31,16.7,14.63,30,15.94,8.65,1.32,16.66,0,22.64-4.73,10.65-8.66,19.27-20.7,29.93-29.37,6-4.68,13.33,2.63,16,8.61M487.68,185.62a136.26,136.26,0,0,1-12,13.35c-2.66,2.71-4.64,10,6,12,10.68,2.64,28.68,5.93,43.31,5.9,14,0,30.66,1.28,22.63-19.39-8.71-19.93-10-16.63-16.7-23.92-5.35-4.66-14.68-6.63-28-4.6-9.32,1.34-12,12-15.3,16.67m-195.95-20.9c-4.66,3.35-9.32,6-12.63,10.7-4,4.68-2.66,10-7.3,13.32s-8.66,8.7-12,16.7c-4,8.69,7.32,6,16.65,6s20.67,2.62,28.67,3.93c8.66.64,10.67,4.64,16.66,4.62s10-4,16-6c6-2.68,8-7.36,6-12-2.68-4.69-10-10.66-10.72-19.34-1.35-8.64-4-10.66-10-16.63s-13.34-10.64-18-10.63c-8,0-8,6-13.3,9.36"/><path d="M566.08,75.34A21.23,21.23,0,1,0,587.3,54.12a21.24,21.24,0,0,0-21.22,21.22m2.43,0A18.79,18.79,0,1,1,587.3,94.13a18.81,18.81,0,0,1-18.79-18.79"/><path d="M595.26,80.28c0-3.6-.82-4.13-2.38-4.81l-.72-.32.75-.25a4.5,4.5,0,0,0,2.89-4.5v0a5.59,5.59,0,0,0-1.52-3.8A6.23,6.23,0,0,0,589.76,65l-9.87,0c0,.58,0,18.94,0,19.52h3.51c0-.57,0-7.88,0-7.88l4.66,0a3.89,3.89,0,0,1,2.84.75c.7.69.74,1.78.74,3.36a13.27,13.27,0,0,0,.41,3.76h4.1v-.07c-.85-.45-.9-1.34-.91-4.17M591.46,73a3.77,3.77,0,0,1-2.8.85l-5.24,0,0-6H589a3.36,3.36,0,0,1,2.47.83,2.91,2.91,0,0,1,.78,2.09,3,3,0,0,1-.74,2.21"/></svg>
